<?xml version="1.0" encoding="utf-8"?>
<!-- Generator: Adobe Illustrator 21.1.0, SVG Export Plug-In . SVG Version: 6.00 Build 0)  -->
<svg version="1.1" id="Layer_1" xmlns="http://www.w3.org/2000/svg" xmlns:xlink="http://www.w3.org/1999/xlink" x="0px" y="0px"
	 viewBox="0 0 293.1 291.1" style="enable-background:new 0 0 293.1 291.1;" xml:space="preserve">
<style type="text/css">
	.st0{fill:#444444;}
	.st1{fill:#FF4D4D;}
	.st2{fill:#D1D1D1;}
	.st3{fill:#353434;}
	.st4{opacity:0.5;fill:#D1D1D1;enable-background:new    ;}
</style>
<g>
	<rect x="0.6" y="-0.8" class="st0" width="292.5" height="291.9"/>
	<g>
		<g>
			<g>
				<path class="st1" d="M247.3,170c-0.5,5.8-1.2,9.3-1.2,9.3H238c0-3.3-0.1-6.4-0.3-9.6c-0.1-2-0.3-4-0.3-6
					c-2.7-35.2-14.5-57.4-28.7-71.5c-23.5-23.1-53.7-24.1-61.5-23.9c-0.6,0-1,0-1.3,0.1l0,0c0,0-0.1,0-0.3,0s-0.3,0-0.3,0l0,0
					c-4.6-0.2-36.6-0.9-61.6,22.8c-15,13.9-27.4,36.4-30.2,72.6c-0.2,2-0.3,3.9-0.3,6c-0.2,3.1-0.3,6.3-0.3,9.6h-8.1
					c0,0-0.7-3.5-1.2-9.3c-1.8-19.5-2.4-65.1,25.6-95c15.3-16.4,39.2-28,76.2-28c0.6,0,1.1,0,1.7,0c37.9,0.3,61.8,13,76.7,30.4
					C249.7,107.2,249,151,247.3,170z"/>
				<path class="st2" d="M59.4,238.6h-5.7c-13.6,0-24.7-10.4-24.7-23.2v-22.4c0-12.8,11-23.2,24.7-23.2h5.7V238.6z"/>
				<path class="st3" d="M67.8,252L67.8,252c-9.2,0-16.6-7-16.6-15.6v-64.5c0-8.6,7.4-15.6,16.6-15.6l0,0c9.2,0,16.6,7,16.6,15.6
					v64.5C84.4,245,77,252,67.8,252z"/>
				<path class="st2" d="M262,186.5v35.2c0,9.3-8,16.8-17.9,16.8h-12.5v-68.9h12.5c1.1,0,2.2,0.1,3.2,0.2
					C255.6,171.4,262,178.2,262,186.5z"/>
				<path class="st3" d="M239.9,171.9v64.5c0,0.7-0.1,1.5-0.2,2.2c-1.1,7.6-8,13.4-16.5,13.4c-9.2,0-16.6-7-16.6-15.6v-64.5
					c0-4.3,1.8-8.2,4.8-11.1c3-2.8,7.2-4.6,11.8-4.6c6,0,11.2,3,14.1,7.5c1.2,1.8,2,3.8,2.3,6C239.9,170.4,239.9,171.2,239.9,171.9z
					"/>
			</g>
			<path class="st2" d="M227.6,63.7c-0.3,5.3-1.8,9.8-3.7,13.6c-3.9,7.6-10.3,12.2-15.2,14.9c-4.3,2.4-7.8,3.2-7.8,3.2
				c-20.3-17.3-49.1-16.5-53.5-16.2v0.1c0,0-0.1,0-0.3,0s-0.3,0-0.3,0v-0.1c-4.4-0.2-33.2-1.2-53.5,16.2c0,0-4.5-1.1-9.8-4.4
				c-5.1-3.1-11-8.2-14.3-16.1c-1.3-3.2-2.3-7-2.6-11.2c0,0,26.9-31.5,80.1-31.7l0,0h0.6l0,0C200.7,32.2,227.6,63.7,227.6,63.7z"/>
		</g>
		<path class="st4" d="M262,186.5v35.2c0,9.3-8,16.8-17.9,16.8h-4.3c-1.1,7.6-8,13.4-16.5,13.4c-9.2,0-16.6-7-16.6-15.6v-64.5
			c0-4.3,1.8-8.2,4.8-11.1c3-2.8,7.2-4.6,11.8-4.6c6,0,11.2,3,14.1,7.5c-2.7-35.2-14.5-57.4-28.7-71.5c-4.3,2.4-7.8,3.2-7.8,3.2
			c-20.3-17.3-49.1-16.5-53.5-16.2v0.1c0,0-0.1,0-0.3,0V32h0.3l0,0c53.3,0.2,80.1,31.7,80.1,31.7c-0.3,5.3-1.8,9.8-3.7,13.6
			c25.8,29.9,25.2,73.7,23.4,92.6C255.6,171.4,262,178.2,262,186.5z"/>
	</g>
</g>
</svg>
